<svg width="91" height="91" viewBox="0 0 91 91" fill="none" xmlns="http://www.w3.org/2000/svg">
<path d="M47.7961 5.28064L72.3158 15.437C73.786 16.046 74.954 17.214 75.563 18.6842L85.7194 43.2039C86.3283 44.6741 86.3283 46.3259 85.7194 47.7961L75.563 72.3158C74.954 73.786 73.786 74.954 72.3158 75.563L47.7961 85.7194C46.3259 86.3283 44.6741 86.3283 43.2039 85.7194L18.6842 75.563C17.214 74.954 16.046 73.786 15.437 72.3158L5.28064 47.7961C4.67168 46.3259 4.67168 44.6741 5.28064 43.2039L15.437 18.6842C16.046 17.214 17.214 16.046 18.6842 15.437L43.2039 5.28064C44.6741 4.67168 46.3259 4.67168 47.7961 5.28064Z" stroke="black" stroke-width="8"/>
<rect x="41" y="19" width="9" height="36" rx="4.5" fill="black"/>
<rect x="41" y="62" width="9" height="9" rx="4.5" fill="black"/>
</svg>