<svg width="81" height="60" viewBox="0 0 81 60" fill="none" xmlns="http://www.w3.org/2000/svg">
<path d="M71.8432 3C73.5001 1.34315 76.1863 1.34315 77.8432 3V3C79.5001 4.65685 79.5001 7.34315 77.8432 9L31.3015 55.5417C29.6446 57.1986 26.9583 57.1986 25.3015 55.5418V55.5418C23.6446 53.8849 23.6446 51.1986 25.3015 49.5417L71.8432 3Z" fill="black"/>
<path d="M30.8009 50.0381C32.4578 51.6949 32.4578 54.3812 30.8009 56.0381V56.0381C29.144 57.6949 26.4578 57.6949 24.8009 56.0381L3 34.2372C1.34315 32.5803 1.34315 29.894 3 28.2372V28.2372C4.65685 26.5803 7.34315 26.5803 9 28.2372L30.8009 50.0381Z" fill="black"/>
</svg>
