<svg width="183" height="174" viewBox="0 0 183 174" fill="none" xmlns="http://www.w3.org/2000/svg">
<circle cx="105.5" cy="78.5" r="77" fill="white" stroke="black"/>
<path d="M20.5 99.1214C20.5 125.255 39.7639 145.08 59.2133 157.63C68.9509 163.913 78.7727 168.399 86.3336 170.963C90.1116 172.244 93.3418 173.051 95.7242 173.359C96.9118 173.512 97.9163 173.545 98.6828 173.437C99.4088 173.335 100.104 173.08 100.384 172.478C100.685 171.831 100.365 171.211 99.9145 170.724C99.4526 170.224 98.7198 169.705 97.7977 169.159C95.9439 168.062 93.162 166.765 89.7871 165.225C89.28 164.994 88.7589 164.757 88.225 164.514C81.6319 161.515 73.0751 157.622 64.4478 152.505C45.7732 141.427 26.9435 124.713 26.9435 99.1214C26.9435 98.0583 27.1647 95.8497 27.4482 93.0855L27.4858 92.7188C27.7596 90.0516 28.0789 86.9402 28.2951 83.9531C28.5208 80.8335 28.6362 77.8228 28.464 75.583C28.3784 74.469 28.2191 73.5041 27.9449 72.8034C27.6808 72.1284 27.2223 71.5 26.4435 71.5C25.7404 71.5 25.1867 71.9913 24.7635 72.5987C24.3286 73.2231 23.943 74.0931 23.5974 75.1143C22.9039 77.1633 22.331 79.9453 21.8747 82.9165C20.9613 88.8635 20.5 95.6693 20.5 99.1214Z" fill="white" stroke="black"/>
<path d="M47.6562 72.1586C49.0716 80.4492 49.3886 86.6614 48.8424 91.3157C48.2968 95.9651 46.8946 99.0256 44.8999 101.061C42.9041 103.098 40.2592 104.167 37.1128 104.721C33.9587 105.277 30.3518 105.308 26.4628 105.308C22.5793 105.308 18.5888 105.252 14.9263 104.613C11.2655 103.975 7.97916 102.762 5.47582 100.486C0.500939 95.9614 -1.61333 86.9914 3.25133 68.9921C5.26069 61.5575 6.77118 56.001 8.15065 51.8382C9.53277 47.6674 10.7656 44.9545 12.1957 43.1712C13.6014 41.4181 15.2148 40.543 17.4383 40.0982C19.7001 39.6459 22.5618 39.6436 26.4628 39.6436C30.366 39.6436 33.2466 39.6464 35.5024 40.1463C37.7134 40.6364 39.2957 41.5993 40.6052 43.5397C41.9397 45.517 43.0032 48.5271 44.0851 53.1502C45.1646 57.7635 46.2499 63.9221 47.6562 72.1586Z" fill="white" stroke="black"/>
<path d="M25.4131 12.136C25.2787 12.6376 24.7876 13.3176 23.9919 14.0778C23.2145 14.8203 22.2091 15.5809 21.1515 16.2497C20.0936 16.9187 18.9994 17.4857 18.0492 17.8486C17.5739 18.0301 17.1452 18.1565 16.7818 18.2213C16.4106 18.2875 16.1468 18.2822 15.9806 18.2377C15.7314 18.1709 15.4698 17.89 15.3035 17.1604C15.1442 16.4621 15.1159 15.5218 15.1781 14.4805C15.3021 12.4064 15.7751 10.0747 16.1133 8.81257C16.4511 7.55201 17.02 5.99493 17.7495 4.83686C18.1151 4.25645 18.5009 3.80894 18.8895 3.54072C19.2658 3.28092 19.6213 3.2022 19.9833 3.2992C20.3796 3.40539 20.9715 3.81956 21.6596 4.52296C22.3284 5.20657 23.0283 6.10097 23.6454 7.06212C24.2628 8.02392 24.7868 9.03637 25.1133 9.95289C25.4471 10.8899 25.5447 11.645 25.4131 12.136Z" fill="#FFC0CB" stroke="black"/>
<path d="M39.6998 13.8853C39.5654 14.3869 39.6507 15.2214 39.9598 16.2775C40.2617 17.3093 40.7521 18.4707 41.3337 19.5787C41.9153 20.687 42.5794 21.7252 43.2208 22.5145C43.5417 22.9093 43.8498 23.2332 44.1321 23.471C44.4205 23.7139 44.6516 23.8412 44.8178 23.8858C45.067 23.9525 45.4339 23.8401 45.9428 23.2914C46.43 22.7663 46.9246 21.9661 47.3913 21.0332C48.321 19.1749 49.0772 16.9192 49.4154 15.657C49.7532 14.3965 50.039 12.7635 49.9863 11.3958C49.9598 10.7104 49.8495 10.1299 49.6471 9.70339C49.4511 9.29023 49.1826 9.0443 48.8206 8.9473C48.4243 8.84111 47.7046 8.90383 46.757 9.16895C45.836 9.4266 44.7826 9.8512 43.7677 10.3751C42.7521 10.8993 41.792 11.5141 41.051 12.1446C40.2934 12.7892 39.8314 13.3943 39.6998 13.8853Z" fill="#FFC0CB" stroke="black"/>
<path d="M45.1817 29.9058L45.1733 29.9372L45.169 29.9694C43.9736 38.966 35.332 45.4583 27.5398 43.3704C19.8777 41.3173 16.0843 37.897 14.4343 34.0593C12.7723 30.1938 13.2292 25.7829 14.3389 21.6415C15.4096 17.6454 18.4979 14.6593 22.3557 12.9336C26.2153 11.2071 30.7924 10.7689 34.7443 11.8278C42.6233 13.9389 47.3478 21.8219 45.1817 29.9058Z" fill="white" stroke="black"/>
<path d="M32.243 31.2208C31.8311 32.7578 29.734 34.3547 28.7658 34.0953C27.7977 33.8358 26.572 31.3486 26.9838 29.8116C27.4238 28.1695 29.2891 28.2698 30.2572 28.5293C31.2254 28.7887 32.6548 29.6838 32.243 31.2208Z" fill="#FFC0CB"/>
<path d="M26.5324 22.7308C26.1086 23.6115 24.9104 23.2904 23.216 22.8364C21.5217 22.3824 20.4951 20.7199 20.7696 19.6952C21.1425 18.3037 20.9528 17.2586 24.0206 18.0807C25.7149 18.5347 27.5921 20.529 26.5324 22.7308Z" fill="black"/>
<circle cx="25.0571" cy="21.6031" r="1.20479" transform="rotate(15 25.0571 21.6031)" fill="#00FF00"/>
<path d="M34.5437 25.2118C34.4704 26.1864 35.6686 26.5075 37.363 26.9615C39.0573 27.4155 40.7776 26.489 41.0522 25.4643C41.4251 24.0728 42.1119 23.2626 39.0441 22.4406C37.3497 21.9866 34.7268 22.7752 34.5437 25.2118Z" fill="black"/>
<circle cx="39.0219" cy="25.345" r="1.20479" transform="rotate(15 39.0219 25.345)" fill="#00FF00"/>
<path d="M29.2053 35.6032C28.9757 36.4602 28.4422 37.0618 28.0137 36.947C27.5852 36.8322 27.424 36.0444 27.6536 35.1875C27.8833 34.3305 28.4168 33.7289 28.8452 33.8437C29.2737 33.9585 29.4349 34.7463 29.2053 35.6032Z" fill="black"/>
<path d="M33.9642 36.4626C33.792 37.1053 29.8379 37.8516 27.9098 37.3349C25.9816 36.8183 22.9304 34.195 23.1026 33.5523C23.2749 32.9096 26.3974 35.2666 28.3255 35.7833C30.2537 36.2999 34.1364 35.8199 33.9642 36.4626Z" fill="black"/>
<rect x="46.5" y="108.5" width="118" height="11" rx="5.5" fill="#BD9A7A" stroke="black"/>
<rect x="120.158" y="55.3214" width="20.1681" height="50.5398" rx="4.5" transform="rotate(15 120.158 55.3214)" fill="#DBE2E9" stroke="black"/>
<rect x="108.735" y="45.683" width="20.1681" height="50.5398" rx="4.5" transform="rotate(60 108.735 45.683)" fill="white" stroke="black"/>
<rect x="139.5" y="57.8775" width="20" height="50" rx="4.5" fill="#30B700" stroke="black"/>
<ellipse cx="149.5" cy="96.0828" rx="5.93478" ry="5.91964" fill="black"/>
<rect x="56.5" y="107.877" width="20" height="51" rx="4.5" transform="rotate(-90 56.5 107.877)" fill="#00A3E1" stroke="black"/>
<ellipse cx="95.4643" cy="97.8775" rx="5.93478" ry="6.03572" transform="rotate(-90 95.4643 97.8775)" fill="black"/>
</svg>
